<svg width="200" height="60" viewBox="0 0 200 60" xmlns="http://www.w3.org/2000/svg">
  <!-- Hexagonal Icon -->
  <g transform="translate(10, 15)">
    <!-- Outer hexagon -->
    <path d="M15 3 L25.98 9 L25.98 21 L15 27 L4.02 21 L4.02 9 Z" 
          fill="none" 
          stroke="#B0BEC5" 
          stroke-width="2"/>
    
    <!-- Inner interconnected network -->
    <circle cx="15" cy="9" r="1.5" fill="#B0BEC5"/>
    <circle cx="9" cy="15" r="1.5" fill="#B0BEC5"/>
    <circle cx="21" cy="15" r="1.5" fill="#B0BEC5"/>
    <circle cx="15" cy="21" r="1.5" fill="#B0BEC5"/>
    <circle cx="12" cy="12" r="1" fill="#B0BEC5"/>
    <circle cx="18" cy="12" r="1" fill="#B0BEC5"/>
    <circle cx="12" cy="18" r="1" fill="#B0BEC5"/>
    <circle cx="18" cy="18" r="1" fill="#B0BEC5"/>
    
    <!-- Connecting lines -->
    <line x1="15" y1="9" x2="9" y2="15" stroke="#B0BEC5" stroke-width="1"/>
    <line x1="15" y1="9" x2="21" y2="15" stroke="#B0BEC5" stroke-width="1"/>
    <line x1="9" y1="15" x2="15" y2="21" stroke="#B0BEC5" stroke-width="1"/>
    <line x1="21" y1="15" x2="15" y2="21" stroke="#B0BEC5" stroke-width="1"/>
    <line x1="9" y1="15" x2="21" y2="15" stroke="#B0BEC5" stroke-width="1"/>
    <line x1="15" y1="9" x2="12" y2="12" stroke="#B0BEC5" stroke-width="0.8"/>
    <line x1="15" y1="9" x2="18" y2="12" stroke="#B0BEC5" stroke-width="0.8"/>
    <line x1="9" y1="15" x2="12" y2="12" stroke="#B0BEC5" stroke-width="0.8"/>
    <line x1="9" y1="15" x2="12" y2="18" stroke="#B0BEC5" stroke-width="0.8"/>
    <line x1="21" y1="15" x2="18" y2="12" stroke="#B0BEC5" stroke-width="0.8"/>
    <line x1="21" y1="15" x2="18" y2="18" stroke="#B0BEC5" stroke-width="0.8"/>
    <line x1="15" y1="21" x2="12" y2="18" stroke="#B0BEC5" stroke-width="0.8"/>
    <line x1="15" y1="21" x2="18" y2="18" stroke="#B0BEC5" stroke-width="0.8"/>
  </g>
  
  <!-- Siblore Text -->
  <text x="50" y="35" font-family="Arial, sans-serif" font-size="24" font-weight="500" fill="white">
    Siblore
  </text>
</svg>
